# xmcd CD database file
#
# Track frame offsets:
#	150
#	17876
#	34792
#	44961
#	60312
#	70571
#	74478
#	83116
#	95153
#	110025
#	112923
#	127091
#	144317
#	158031
#	165810
#	177895
#	192150
#	205772
#	210313
#	215847
#	221635
#	225930
#	228103
#	242042
#	251120
#	265274
#	277539
#	296300
#
# Disc length: 4384 seconds
#
# Revision: 0
# Processed by: cddbd v1.4PL0 Copyright (c) Steve Scherf et al.
# Submitted via: CDex 1.50
#
DISCID=8e111e1c
DTITLE=Razorback Records - Gore is Your Master (Compilation 1)
DYEAR=1900
DGENRE=Gore Grind
TTITLE0=Regurgitation - Menstrual Cykill
TTITLE1=Brutal Insanity - Sick Perversion
TTITLE2=Traumatism - Necrocoprophageus
TTITLE3=Prophecy - Feasting on the Flesh
TTITLE4=Engorged - Cobra H I S S
TTITLE5=Sublime Cadaveric Decomposition - Necropedozoophillen
TTITLE6=Vomit Remnants - Putrifying Dead Flesh
TTITLE7=Cock and Ball Torture - Clit Blast Massacre - Filthy Phone Fuck Sluts
TTITLE8=Impaled - The Immaculate Defecation
TTITLE9=Grot - Mutilate My Enemy
TTITLE10=Flesh Feast - Tormented by Incarceration
TTITLE11=Intense Hammer Rage - With Her Cunt She fucks
TTITLE12=Encabulos - Shrine of Souls
TTITLE13=Sanity's Dawn - Gargling with Rancid Pus
TTITLE14=Origin - Manimal Instincts
TTITLE15=Spinecast - Nightmares of Depravity
TTITLE16=Severe Torture - Til the End
TTITLE17=Mucupurulent - Pussy Berserker
TTITLE18=Gore - Attenuated Mutant Worms
TTITLE19=Rotting Flesh - Suppurated Inflammation of Fecal Excretor
TTITLE20=Last Days of Humanity - Carnal Tumor
TTITLE21=Disordered - Aroma of Vomitory
TTITLE22=Vastion - Horrid Sights of Hate
TTITLE23=Inhumate - Sodomy
TTITLE24=Trephination - Buds
TTITLE25=4 Seats 4 Invalides - Necrobestiality
TTITLE26=Execrator - Grotesque
TTITLE27=Rigor Sardonicous - Seasons of the Dead
EXTD=
EXTT0=
EXTT1=
EXTT2=
EXTT3=
EXTT4=
EXTT5=
EXTT6=
EXTT7=
EXTT8=
EXTT9=
EXTT10=
EXTT11=
EXTT12=
EXTT13=
EXTT14=
EXTT15=
EXTT16=
EXTT17=
EXTT18=
EXTT19=
EXTT20=
EXTT21=
EXTT22=
EXTT23=
EXTT24=
EXTT25=
EXTT26=
EXTT27=
PLAYORDER=
